<mxfile host="Electron" agent="Mozilla/5.0 (X11; Linux x86_64) AppleWebKit/537.36 (KHTML, like Gecko) draw.io/26.0.3 Chrome/130.0.6723.137 Electron/33.2.1 Safari/537.36" version="26.0.3">
  <diagram name="diag_class" id="dIloEfSSjUv7zk5Za_LW">
    <mxGraphModel dx="1434" dy="817" grid="1" gridSize="10" guides="1" tooltips="1" connect="1" arrows="1" fold="1" page="1" pageScale="1" pageWidth="827" pageHeight="1169" math="0" shadow="0">
      <root>
        <mxCell id="0" />
        <mxCell id="1" parent="0" />
        <mxCell id="Jag5pYAL4qDpF_p2UUnN-1" value="Arbre_Genealog" style="swimlane;fontStyle=1;align=center;verticalAlign=top;childLayout=stackLayout;horizontal=1;startSize=26;horizontalStack=0;resizeParent=1;resizeParentMax=0;resizeLast=0;collapsible=1;marginBottom=0;whiteSpace=wrap;html=1;" parent="1" vertex="1">
          <mxGeometry x="115" y="677" width="320" height="210" as="geometry">
            <mxRectangle x="220" y="230" width="130" height="30" as="alternateBounds" />
          </mxGeometry>
        </mxCell>
        <mxCell id="Jag5pYAL4qDpF_p2UUnN-2" value="- nom : str&lt;div&gt;- root : Noeud_Genealog&lt;/div&gt;" style="text;strokeColor=none;fillColor=none;align=left;verticalAlign=top;spacingLeft=4;spacingRight=4;overflow=hidden;rotatable=0;points=[[0,0.5],[1,0.5]];portConstraint=eastwest;whiteSpace=wrap;html=1;" parent="Jag5pYAL4qDpF_p2UUnN-1" vertex="1">
          <mxGeometry y="26" width="320" height="44" as="geometry" />
        </mxCell>
        <mxCell id="Jag5pYAL4qDpF_p2UUnN-3" value="" style="line;strokeWidth=1;fillColor=none;align=left;verticalAlign=middle;spacingTop=-1;spacingLeft=3;spacingRight=3;rotatable=0;labelPosition=right;points=[];portConstraint=eastwest;strokeColor=inherit;" parent="Jag5pYAL4qDpF_p2UUnN-1" vertex="1">
          <mxGeometry y="70" width="320" height="8" as="geometry" />
        </mxCell>
        <mxCell id="Jag5pYAL4qDpF_p2UUnN-4" value="+ add_parent(id_child:int, id_parent): void&lt;div&gt;&lt;div&gt;&lt;span style=&quot;background-color: transparent; color: light-dark(rgb(0, 0, 0), rgb(255, 255, 255));&quot;&gt;+ get_ancestor_number(id_node: int): int&lt;/span&gt;&lt;/div&gt;&lt;div&gt;+ get_ancestor(gen_level: int): Noeud_Genealog[ ]&lt;/div&gt;&lt;/div&gt;&lt;div&gt;+ display(id_node:int):str&lt;/div&gt;&lt;div&gt;+ remove_node(id_node) : void&lt;/div&gt;&lt;div&gt;+ get_node_no_parent(): Noeud_Genealog[ ]&lt;/div&gt;&lt;div&gt;+ get_node_two_parents(): Noeud_Genealog[ ]&lt;/div&gt;&lt;div&gt;+ get_node_one_parent(): Noeud_Genealog[ ]&lt;/div&gt;" style="text;strokeColor=none;fillColor=none;align=left;verticalAlign=top;spacingLeft=4;spacingRight=4;overflow=hidden;rotatable=0;points=[[0,0.5],[1,0.5]];portConstraint=eastwest;whiteSpace=wrap;html=1;" parent="Jag5pYAL4qDpF_p2UUnN-1" vertex="1">
          <mxGeometry y="78" width="320" height="132" as="geometry" />
        </mxCell>
        <mxCell id="Jag5pYAL4qDpF_p2UUnN-5" value="Noeud_Genealog" style="swimlane;fontStyle=1;align=center;verticalAlign=top;childLayout=stackLayout;horizontal=1;startSize=26;horizontalStack=0;resizeParent=1;resizeParentMax=0;resizeLast=0;collapsible=1;marginBottom=0;whiteSpace=wrap;html=1;" parent="1" vertex="1">
          <mxGeometry x="562" y="677" width="260" height="150" as="geometry">
            <mxRectangle x="220" y="230" width="130" height="30" as="alternateBounds" />
          </mxGeometry>
        </mxCell>
        <mxCell id="Jag5pYAL4qDpF_p2UUnN-6" value="&lt;div&gt;&lt;div&gt;&lt;span style=&quot;background-color: transparent; color: light-dark(rgb(0, 0, 0), rgb(255, 255, 255));&quot;&gt;- nom : str&lt;/span&gt;&lt;/div&gt;&lt;/div&gt;&lt;div&gt;- prenom : str&lt;/div&gt;&lt;div&gt;- sexe: str&lt;/div&gt;&lt;div&gt;- date_naissance : str&lt;/div&gt;" style="text;strokeColor=none;fillColor=none;align=left;verticalAlign=top;spacingLeft=4;spacingRight=4;overflow=hidden;rotatable=0;points=[[0,0.5],[1,0.5]];portConstraint=eastwest;whiteSpace=wrap;html=1;" parent="Jag5pYAL4qDpF_p2UUnN-5" vertex="1">
          <mxGeometry y="26" width="260" height="84" as="geometry" />
        </mxCell>
        <mxCell id="Jag5pYAL4qDpF_p2UUnN-7" value="" style="line;strokeWidth=1;fillColor=none;align=left;verticalAlign=middle;spacingTop=-1;spacingLeft=3;spacingRight=3;rotatable=0;labelPosition=right;points=[];portConstraint=eastwest;strokeColor=inherit;" parent="Jag5pYAL4qDpF_p2UUnN-5" vertex="1">
          <mxGeometry y="110" width="260" height="8" as="geometry" />
        </mxCell>
        <mxCell id="Jag5pYAL4qDpF_p2UUnN-8" value="+ remove():void" style="text;strokeColor=none;fillColor=none;align=left;verticalAlign=top;spacingLeft=4;spacingRight=4;overflow=hidden;rotatable=0;points=[[0,0.5],[1,0.5]];portConstraint=eastwest;whiteSpace=wrap;html=1;" parent="Jag5pYAL4qDpF_p2UUnN-5" vertex="1">
          <mxGeometry y="118" width="260" height="32" as="geometry" />
        </mxCell>
        <mxCell id="Jag5pYAL4qDpF_p2UUnN-9" value="Noeud_Bin" style="swimlane;fontStyle=1;align=center;verticalAlign=top;childLayout=stackLayout;horizontal=1;startSize=26;horizontalStack=0;resizeParent=1;resizeParentMax=0;resizeLast=0;collapsible=1;marginBottom=0;whiteSpace=wrap;html=1;" parent="1" vertex="1">
          <mxGeometry x="575.5" y="470" width="233" height="160" as="geometry" />
        </mxCell>
        <mxCell id="Jag5pYAL4qDpF_p2UUnN-10" value="- id: type&lt;div&gt;- right : Noeud_Bin&lt;/div&gt;&lt;div&gt;- left : Noeud_Bin&lt;/div&gt;" style="text;strokeColor=none;fillColor=none;align=left;verticalAlign=top;spacingLeft=4;spacingRight=4;overflow=hidden;rotatable=0;points=[[0,0.5],[1,0.5]];portConstraint=eastwest;whiteSpace=wrap;html=1;" parent="Jag5pYAL4qDpF_p2UUnN-9" vertex="1">
          <mxGeometry y="26" width="233" height="54" as="geometry" />
        </mxCell>
        <mxCell id="Jag5pYAL4qDpF_p2UUnN-11" value="" style="line;strokeWidth=1;fillColor=none;align=left;verticalAlign=middle;spacingTop=-1;spacingLeft=3;spacingRight=3;rotatable=0;labelPosition=right;points=[];portConstraint=eastwest;strokeColor=inherit;" parent="Jag5pYAL4qDpF_p2UUnN-9" vertex="1">
          <mxGeometry y="80" width="233" height="8" as="geometry" />
        </mxCell>
        <mxCell id="Jag5pYAL4qDpF_p2UUnN-12" value="+ add_right(Noeud_Bin): void&lt;div&gt;+ add_left(Noeud_Bin): void&lt;/div&gt;&lt;div&gt;+ get_right(): Noeud_Bin&lt;/div&gt;&lt;div&gt;+ get_left(): Noeud_Bin&lt;/div&gt;" style="text;strokeColor=none;fillColor=none;align=left;verticalAlign=top;spacingLeft=4;spacingRight=4;overflow=hidden;rotatable=0;points=[[0,0.5],[1,0.5]];portConstraint=eastwest;whiteSpace=wrap;html=1;" parent="Jag5pYAL4qDpF_p2UUnN-9" vertex="1">
          <mxGeometry y="88" width="233" height="72" as="geometry" />
        </mxCell>
        <mxCell id="Jag5pYAL4qDpF_p2UUnN-13" value="Arbre_Bin" style="swimlane;fontStyle=1;align=center;verticalAlign=top;childLayout=stackLayout;horizontal=1;startSize=26;horizontalStack=0;resizeParent=1;resizeParentMax=0;resizeLast=0;collapsible=1;marginBottom=0;whiteSpace=wrap;html=1;" parent="1" vertex="1">
          <mxGeometry x="175" y="470" width="200" height="110" as="geometry" />
        </mxCell>
        <mxCell id="Jag5pYAL4qDpF_p2UUnN-14" value="- root : Noeud_Bin" style="text;strokeColor=none;fillColor=none;align=left;verticalAlign=top;spacingLeft=4;spacingRight=4;overflow=hidden;rotatable=0;points=[[0,0.5],[1,0.5]];portConstraint=eastwest;whiteSpace=wrap;html=1;" parent="Jag5pYAL4qDpF_p2UUnN-13" vertex="1">
          <mxGeometry y="26" width="200" height="26" as="geometry" />
        </mxCell>
        <mxCell id="Jag5pYAL4qDpF_p2UUnN-15" value="" style="line;strokeWidth=1;fillColor=none;align=left;verticalAlign=middle;spacingTop=-1;spacingLeft=3;spacingRight=3;rotatable=0;labelPosition=right;points=[];portConstraint=eastwest;strokeColor=inherit;" parent="Jag5pYAL4qDpF_p2UUnN-13" vertex="1">
          <mxGeometry y="52" width="200" height="8" as="geometry" />
        </mxCell>
        <mxCell id="Jag5pYAL4qDpF_p2UUnN-16" value="+ display(): str&lt;div&gt;+ add_root(Noeud_Bin): void&lt;/div&gt;" style="text;strokeColor=none;fillColor=none;align=left;verticalAlign=top;spacingLeft=4;spacingRight=4;overflow=hidden;rotatable=0;points=[[0,0.5],[1,0.5]];portConstraint=eastwest;whiteSpace=wrap;html=1;" parent="Jag5pYAL4qDpF_p2UUnN-13" vertex="1">
          <mxGeometry y="60" width="200" height="50" as="geometry" />
        </mxCell>
        <mxCell id="Jag5pYAL4qDpF_p2UUnN-20" value="" style="endArrow=block;endFill=0;endSize=12;html=1;rounded=0;exitX=0.5;exitY=0;exitDx=0;exitDy=0;" parent="1" source="Jag5pYAL4qDpF_p2UUnN-1" target="Jag5pYAL4qDpF_p2UUnN-13" edge="1">
          <mxGeometry width="160" relative="1" as="geometry">
            <mxPoint x="305" y="897" as="sourcePoint" />
            <mxPoint x="465" y="897" as="targetPoint" />
          </mxGeometry>
        </mxCell>
        <mxCell id="Jag5pYAL4qDpF_p2UUnN-21" value="" style="endArrow=block;endFill=0;endSize=12;html=1;rounded=0;exitX=0.5;exitY=0;exitDx=0;exitDy=0;" parent="1" source="Jag5pYAL4qDpF_p2UUnN-5" target="Jag5pYAL4qDpF_p2UUnN-9" edge="1">
          <mxGeometry width="160" relative="1" as="geometry">
            <mxPoint x="595" y="917" as="sourcePoint" />
            <mxPoint x="755" y="917" as="targetPoint" />
          </mxGeometry>
        </mxCell>
        <mxCell id="Jag5pYAL4qDpF_p2UUnN-32" value="fusion get_node_... , avec mise en param de la recherche ?" style="shape=note;size=15;align=left;spacingLeft=10;html=1;whiteSpace=wrap;" parent="1" vertex="1">
          <mxGeometry x="5" y="897" width="190" height="70" as="geometry" />
        </mxCell>
        <mxCell id="Jag5pYAL4qDpF_p2UUnN-33" value="" style="edgeStyle=none;endArrow=none;exitX=0.4;exitY=0;dashed=1;html=1;rounded=0;entryX=0.034;entryY=0.973;entryDx=0;entryDy=0;entryPerimeter=0;" parent="1" source="Jag5pYAL4qDpF_p2UUnN-32" target="Jag5pYAL4qDpF_p2UUnN-4" edge="1">
          <mxGeometry x="1" relative="1" as="geometry">
            <mxPoint x="105" y="917" as="targetPoint" />
          </mxGeometry>
        </mxCell>
      </root>
    </mxGraphModel>
  </diagram>
</mxfile>
